<svg width="929" height="926" viewBox="0 0 929 926" fill="none" xmlns="http://www.w3.org/2000/svg">
<path d="M928.399 0H929H928.399ZM927.346 0L436.089 12.6068C435.939 8.40454 435.939 4.20227 435.939 0H927.497H927.346ZM928.248 0H928.399H929H928.248ZM927.647 0H927.497H927.346H927.196H927.046L440.148 63.3342C439.095 54.9297 438.193 46.3751 437.442 37.8204L927.196 0H927.346H927.647H928.098H927.647ZM449.468 114.212C447.513 105.807 445.71 97.4026 444.056 88.998L927.046 0.150024L449.468 114.212ZM927.647 0H927.346H927.196H927.647ZM464.199 163.888C461.343 155.784 458.637 147.53 456.232 139.275L927.196 0.150024L464.199 163.888ZM483.892 211.614C480.134 203.81 476.676 196.006 473.369 188.052L927.046 0.300171L483.892 211.614ZM927.497 0H927.346H927.497ZM508.545 256.789C504.035 249.435 499.826 242.081 495.617 234.577L926.895 0.150024L508.545 256.789ZM927.497 0L927.346 0.150024L927.497 0ZM927.346 0L537.708 298.961C532.446 292.208 527.486 285.304 522.675 278.25L927.196 0.150024L927.346 0ZM927.497 0L570.929 337.832C565.067 331.679 559.354 325.376 553.792 318.772L927.497 0ZM927.497 0.150024L608.059 373.101C601.595 367.548 595.282 361.845 588.968 355.992L927.497 0.150024ZM927.497 0.150024V0.300171L648.797 404.168C641.732 399.366 634.817 394.263 628.052 389.16L927.497 0.150024ZM927.346 0.450195L692.541 431.183C685.025 427.131 677.509 422.778 670.293 418.276L927.346 0.450195ZM739.292 453.395C731.324 450.093 723.508 446.641 715.691 442.889L927.497 0.450195L739.292 453.395ZM787.996 470.654C779.729 468.253 771.461 465.551 763.343 462.7L927.346 0.600342L787.996 470.654ZM927.497 0V0.150024V0ZM838.355 482.661C829.786 481.16 821.368 479.359 813.101 477.258L927.346 0.450195L838.355 482.661ZM927.497 0V0.150024V0ZM927.497 0V0.150024V0.300171L889.315 489.264C880.746 488.664 872.328 487.763 863.76 486.563L927.196 0.450195V0.300171V0.150024L927.497 0ZM927.497 0V490.765C923.288 490.765 919.079 490.765 914.87 490.615L927.497 0.150024V0ZM927.497 490.765V0H927.647H928.098H928.248H928.399H929V490.765H927.497ZM927.346 0L436.089 12.6068L0.300647 23.8629C0.150324 15.9086 0 7.95428 0 0H927.497H927.346ZM928.248 0H928.399H929H928.248ZM927.647 0H927.497H927.346H927.196H927.046L439.997 63.4843L7.81683 119.765C5.7123 103.856 4.05874 87.7974 2.85615 71.7387L437.442 38.1206L927.196 0H927.346H927.647H928.098H927.647ZM927.046 0.150024L449.468 114.212L25.555 215.516C21.7969 199.758 18.3395 183.849 15.4833 167.791L444.206 88.998L927.046 0.150024ZM927.647 0H927.497H927.647ZM464.199 163.888L53.2146 309.167C47.8029 293.859 42.6919 278.4 38.1822 262.792L456.232 139.275L927.196 0.150024L464.199 163.888ZM927.497 0H927.346H927.497ZM483.892 211.614L90.6451 399.216C83.5799 384.658 76.9657 369.8 70.8024 354.641L473.519 187.901L927.196 0.150024L483.892 211.614ZM508.545 256.789L137.095 484.462C128.677 470.654 120.56 456.697 112.743 442.439L927.046 0.150024L508.545 256.789ZM927.497 0L927.346 0.150024L927.497 0ZM927.346 0L537.708 298.961L191.963 564.155C182.192 551.398 172.722 538.341 163.402 525.134L522.525 278.25L927.046 0.150024L927.346 0ZM927.346 0L570.929 337.832L254.799 637.544C243.675 625.838 233.002 613.982 222.479 601.675L553.792 318.922L927.346 0ZM927.497 0.150024L608.059 373.101L324.849 703.88C312.523 693.374 300.647 682.719 288.922 671.613L589.118 355.992L927.497 0.150024ZM927.497 0.150024V0.300171L648.797 404.168L401.514 762.712C388.136 753.557 375.208 744.102 362.43 734.196L628.052 389.01L927.497 0.150024ZM927.346 0.450195L484.343 813.439C470.062 805.635 456.082 797.531 442.252 789.126L670.443 418.276L927.346 0.450195ZM739.292 453.395L572.282 855.462C557.25 849.159 542.368 842.555 527.636 835.651L715.54 442.889L927.346 0.450195L739.292 453.395ZM787.996 470.654L664.43 888.029C648.797 883.377 633.163 878.424 617.98 873.021L763.494 462.7L927.497 0.600342L787.996 470.654ZM927.497 0V0.150024V0ZM927.346 0.450195L838.355 482.661L759.435 910.692C743.35 907.69 727.416 904.388 711.632 900.636L813.101 477.408L927.346 0.450195ZM927.497 0V0.150024V0ZM927.497 0V0.150024V0.300171L889.315 489.264L855.642 923.299C839.557 922.098 823.473 920.297 807.539 918.346L863.91 486.713L927.497 0.450195V0.300171V0.150024V0ZM927.497 0V926C919.53 926 911.562 925.85 903.595 925.7L914.87 490.615L927.497 0.150024V0ZM927.497 926V0H927.647H928.098H928.248H928.399H929V926H927.497Z" fill="url(#paint0_radial_1_449)"/>
<defs>
<radialGradient id="paint0_radial_1_449" cx="0" cy="0" r="1" gradientUnits="userSpaceOnUse" gradientTransform="translate(960.085 -55.0099) rotate(133.967) scale(991.047 993.055)">
<stop stop-color="#6366F1" stop-opacity="0.05"/>
<stop offset="1" stop-color="white" stop-opacity="0"/>
</radialGradient>
</defs>
</svg>
