<svg width="46" height="45" viewBox="0 0 46 45" fill="none" xmlns="http://www.w3.org/2000/svg">
<path d="M14.8867 43.8289V37.7025L8.7667 38.3301C7.61861 38.4479 6.6094 37.5722 6.56417 36.419L6.22513 27.7734C4.81676 27.703 2 27.2241 2 25.8721C2 24.182 4.95759 20.8019 5.59136 18.2668" stroke="white" stroke-width="2.3" stroke-linecap="round" stroke-linejoin="round"/>
<path d="M31.5751 43.8288V30.8263C34.8142 27.8071 36.8565 23.394 36.8565 18.478C36.8565 9.37746 29.8574 2 21.2235 2C12.6566 2 5.69911 9.26356 5.5918 18.2668" stroke="white" stroke-width="2.3" stroke-linecap="round" stroke-linejoin="round"/>
<path d="M26.9282 7.75334C24.4198 6.30516 21.4545 5.86531 18.6338 6.52302C15.8131 7.18073 13.3481 8.88676 11.739 11.295C10.1299 13.7033 9.497 16.6335 9.96882 19.4912C10.4406 22.3489 11.9818 24.9201 14.2797 26.6833C16.5775 28.4465 19.46 29.2697 22.3425 28.9858C25.2249 28.7019 27.8915 27.3322 29.8012 25.1546C31.7109 22.977 32.7208 20.1544 32.6261 17.2596C32.5522 15.0038 31.8119 12.8358 30.5196 11.0194" stroke="white" stroke-width="2.3" stroke-linecap="round" stroke-linejoin="round"/>
<path d="M21.2246 17.2104L21.2246 24.8157L14.4645 21.4356L14.4645 13.8303L21.2246 17.2104Z" stroke="white" stroke-width="2.3" stroke-linecap="round" stroke-linejoin="round"/>
<path d="M21.2246 17.2104L21.2246 24.8157L27.9848 21.4356L27.9848 13.8303L21.2246 17.2104Z" stroke="white" stroke-width="2.3" stroke-linecap="round" stroke-linejoin="round"/>
<path d="M14.4639 13.8303L21.2241 17.2104L27.9843 13.8303L21.224 10.4502L14.4639 13.8303Z" stroke="white" stroke-width="2.3" stroke-linecap="round" stroke-linejoin="round"/>
<circle cx="40.871" cy="7.70392" r="1.90131" stroke="white" stroke-width="2.3" stroke-linecap="round" stroke-linejoin="round"/>
<path d="M40.1982 35.801V33.8997" stroke="white" stroke-width="2.3" stroke-linecap="round" stroke-linejoin="round"/>
<path d="M42.0987 37.7023L44 37.7023" stroke="white" stroke-width="2.3" stroke-linecap="round" stroke-linejoin="round"/>
<path d="M40.1982 41.5048V39.6035" stroke="white" stroke-width="2.3" stroke-linecap="round" stroke-linejoin="round"/>
<path d="M36.3956 37.7023L38.2969 37.7023" stroke="white" stroke-width="2.3" stroke-linecap="round" stroke-linejoin="round"/>
</svg>
