<svg width="47" height="42" viewBox="0 0 47 42" fill="none" xmlns="http://www.w3.org/2000/svg">
<path fill-rule="evenodd" clip-rule="evenodd" d="M21.5032 8.75074C21.0765 9.0422 20.8173 9.51169 20.8098 10.0069C20.8075 10.1521 20.8338 10.5555 20.8682 10.9033C20.9026 11.2511 20.9384 11.654 20.9478 11.7987L20.9649 12.0617L20.6505 12.2843C20.4776 12.4067 20.1404 12.6662 19.9013 12.8608L19.4665 13.2147L18.5816 12.8805C18.0948 12.6966 17.6136 12.5284 17.5122 12.5067C17.084 12.4151 16.4953 12.5873 16.1331 12.9101C16.0371 12.9956 15.6635 13.5822 15.2696 14.2661C14.4494 15.6898 14.4135 15.8031 14.5838 16.4298C14.7221 16.9384 14.7997 17.0292 15.7882 17.84L16.498 18.4222L16.4018 19.0257C16.3489 19.3577 16.3003 19.7593 16.2937 19.9182C16.2871 20.077 16.2634 20.2374 16.241 20.2745C16.2186 20.3117 15.8043 20.5222 15.3203 20.7423C14.3319 21.1919 14.0834 21.3686 13.8791 21.7676C13.8097 21.9033 13.7332 22.1275 13.7092 22.266C13.6677 22.5057 13.6845 22.5882 14.0616 23.9954L14.3756 25.1675C14.4295 25.3685 14.5288 25.5545 14.6658 25.7112V25.7112C14.8943 25.9725 15.2244 26.165 15.5704 26.2386C15.7089 26.2681 16.1853 26.2501 16.8201 26.1914C17.3844 26.1392 17.849 26.0959 17.8524 26.0951C17.8558 26.0942 17.9444 26.2166 18.0492 26.3671C18.154 26.5175 18.4138 26.8553 18.6265 27.1177L19.0132 27.5949L18.6629 28.536C18.2638 29.6079 18.2298 29.8326 18.3914 30.3297C18.5721 30.8854 18.7065 31.0033 20.0409 31.7769C21.4401 32.5881 21.6177 32.6436 22.2553 32.4682C22.7357 32.3361 22.8101 32.2717 23.6182 31.2886L24.2183 30.5585L24.7705 30.6442C25.0743 30.6913 25.4779 30.7415 25.6675 30.7556C25.857 30.7697 26.0192 30.7838 26.0279 30.7867C26.0366 30.7897 26.2364 31.2108 26.472 31.7224C26.7369 32.2977 26.9587 32.7175 27.0534 32.8226C27.2902 33.0852 27.6221 33.2746 27.9628 33.3417V33.3417C28.1671 33.3819 28.3779 33.3748 28.579 33.3209L29.7519 33.0067L30.9249 32.6924C31.126 32.6385 31.3121 32.5392 31.4689 32.4022V32.4022C31.7421 32.1635 31.9433 31.8062 31.9966 31.4648C32.0169 31.3351 31.993 30.7812 31.9436 30.2339C31.8941 29.6867 31.8592 29.2324 31.8659 29.2243C31.8726 29.2162 32.036 29.1007 32.229 28.9678C32.422 28.8348 32.7548 28.5804 32.9686 28.4025L33.3573 28.0791L34.2441 28.4118C35.4698 28.8717 35.4827 28.874 36.011 28.7324C36.6569 28.5591 36.7611 28.4465 37.5676 27.0507C38.3246 25.7404 38.3997 25.5216 38.2859 24.9561C38.1874 24.4672 38.0125 24.2514 37.1112 23.5074L36.3533 22.8818L36.4388 22.3894C36.4858 22.1186 36.5398 21.6991 36.5588 21.4571C36.5843 21.1331 36.6175 21.0046 36.6847 20.9694C36.7348 20.9431 37.1493 20.7523 37.6056 20.5452C38.5415 20.1206 38.8009 19.9336 39.004 19.5368C39.0735 19.4011 39.1499 19.1769 39.1739 19.0384C39.2155 18.7987 39.1986 18.7162 38.8216 17.309L38.5075 16.1369C38.4537 15.9359 38.3544 15.7499 38.2174 15.5932V15.5932C37.991 15.3343 37.6591 15.1395 37.3221 15.0678C37.1968 15.0411 36.7199 15.0587 36.1749 15.11C35.6619 15.1583 35.1939 15.192 35.1348 15.1848C35.061 15.1759 34.938 15.0432 34.7419 14.7611C34.5849 14.5352 34.3436 14.2235 34.2056 14.0684C34.0676 13.9133 33.9473 13.7586 33.9381 13.7246C33.929 13.6905 34.0699 13.2668 34.2513 12.7829C34.4327 12.2991 34.599 11.8106 34.6211 11.6973C34.6848 11.3697 34.5439 10.8132 34.3163 10.4934C34.1474 10.2562 34.0149 10.1653 32.8946 9.51918C31.513 8.72236 31.3367 8.66015 30.7845 8.77435C30.29 8.87664 30.1003 9.02996 29.3631 9.92333L28.7102 10.7145L28.2079 10.6245C27.9316 10.5751 27.5149 10.5214 27.282 10.5054C27.0491 10.4893 26.8346 10.4644 26.8054 10.45C26.7762 10.4355 26.5664 10.0228 26.3391 9.53273C25.876 8.53395 25.6957 8.2822 25.2988 8.07924C24.7853 7.81673 24.7219 7.82115 23.1393 8.23088C21.8835 8.556 21.7055 8.61257 21.5032 8.75074Z" stroke="white" stroke-width="2.5" stroke-linecap="round" stroke-linejoin="round"/>
<circle cx="26.4169" cy="20.584" r="5.09464" stroke="white" stroke-width="3" stroke-linecap="round" stroke-linejoin="round"/>
<path d="M7.83203 20.5839C7.83203 16.4929 9.18192 12.5163 11.6723 9.27073C14.1627 6.02517 17.6545 3.69205 21.606 2.63324C25.5576 1.57442 29.7481 1.84908 33.5276 3.41462C37.3072 4.98016 40.4645 7.74908 42.51 11.2919C44.5555 14.8348 45.3748 18.9536 44.8408 23.0096C44.3068 27.0655 42.4494 30.8319 39.5567 33.7247C36.6639 36.6174 32.8975 38.4748 28.8416 39.0088C26.1277 39.3661 23.3856 39.1175 20.8068 38.3011" stroke="white" stroke-width="2.5" stroke-linecap="round" stroke-linejoin="round"/>
<circle cx="8.60071" cy="33.1684" r="2.39759" stroke="white" stroke-width="2" stroke-linecap="round" stroke-linejoin="round"/>
<path fill-rule="evenodd" clip-rule="evenodd" d="M9.73181 26.3285C9.39209 26.2497 9.3678 26.2463 9.27213 26.265C9.13996 26.2909 8.98216 26.3817 8.90265 26.4776C8.82997 26.5652 8.77047 26.6888 8.58694 27.1331C8.51543 27.3062 8.45004 27.4519 8.44166 27.4567C8.43325 27.4615 8.31545 27.473 8.17989 27.4822C7.86623 27.5034 7.54644 27.5468 7.26605 27.6063C7.14475 27.632 7.03953 27.6514 7.03223 27.6495C7.02493 27.6475 6.96492 27.573 6.89889 27.4839C6.69871 27.2137 6.44828 26.8998 6.38727 26.8426C6.33973 26.7981 6.30187 26.7813 6.17052 26.7465C5.96168 26.6912 5.88856 26.6954 5.70967 26.7731C5.51241 26.8587 4.85103 27.2302 4.52906 27.4362C4.19795 27.648 4.14676 27.7042 4.08915 27.9192C4.02271 28.1672 4.03502 28.2184 4.3164 28.8647L4.43853 29.1452L4.2694 29.3365C4.05987 29.5734 3.94109 29.7274 3.72883 30.0374C3.56342 30.279 3.56305 30.2794 3.50191 30.2759C3.46823 30.274 3.24973 30.2468 3.01637 30.2156C2.72382 30.1763 2.56733 30.163 2.51239 30.1728C2.4008 30.1926 2.23304 30.2819 2.12633 30.3783L2.03591 30.46L1.79386 31.3633L1.55182 32.2666L1.57898 32.3696C1.61287 32.4981 1.69003 32.6379 1.77394 32.7229C1.83938 32.7892 1.91487 32.8249 2.57497 33.1015C2.68142 33.1462 2.77228 33.1891 2.77687 33.197C2.78146 33.2049 2.79275 33.3183 2.80193 33.4491C2.83131 33.867 2.85122 34.0165 2.92615 34.3821L2.97346 34.6129L2.70547 34.8115C2.16643 35.2111 2.11087 35.2688 2.05137 35.4909C1.98821 35.7266 2.02153 35.8307 2.3467 36.4133C2.63571 36.9311 2.90222 37.3494 2.9941 37.4293C3.08591 37.5093 3.25853 37.5748 3.39819 37.5828C3.5193 37.5897 3.62894 37.5542 4.08624 37.3595C4.26257 37.2844 4.4219 37.2184 4.44031 37.2128C4.4668 37.2047 4.5038 37.2293 4.61804 37.3307C4.83693 37.5251 5.06074 37.6992 5.3442 37.8958L5.6008 38.0736L5.59691 38.1354C5.59475 38.1693 5.57252 38.3531 5.5475 38.5437C5.49952 38.909 5.48859 39.0855 5.50822 39.1779C5.52601 39.2617 5.63554 39.4543 5.6968 39.5095C5.79644 39.5993 5.96837 39.6582 6.70377 39.8547C7.60922 40.0966 7.67982 40.1037 7.8946 39.9743C8.07617 39.8649 8.12257 39.7898 8.34753 39.2414C8.43479 39.0286 8.50887 38.8531 8.51214 38.8512C8.51541 38.8493 8.6524 38.8384 8.81653 38.8271C9.13702 38.8049 9.43869 38.7643 9.73435 38.7036C9.83596 38.6828 9.92584 38.6675 9.93407 38.6697C9.94231 38.6719 10.0458 38.8058 10.1641 38.9674C10.5079 39.4368 10.6068 39.5316 10.8097 39.586C10.9562 39.6252 11.0774 39.6176 11.2259 39.5596C11.3746 39.5016 12.2648 38.9996 12.5156 38.8322C12.6106 38.7689 12.7225 38.6785 12.7643 38.6314C12.8318 38.5553 12.8449 38.5288 12.8811 38.3936C12.9433 38.1613 12.9241 38.0829 12.6556 37.473L12.5225 37.1707L12.7318 36.9284C12.9536 36.6715 13.1285 36.4406 13.2948 36.185C13.384 36.0478 13.4017 36.0293 13.4412 36.032C13.4659 36.0336 13.6476 36.0575 13.845 36.085C14.3936 36.1614 14.5465 36.1548 14.7079 36.0474C14.9087 35.9138 14.9528 35.8131 15.1789 34.9716C15.4202 34.074 15.4315 33.95 15.2932 33.725C15.2071 33.5851 15.1114 33.523 14.7395 33.3659C14.2516 33.1598 14.2014 33.1366 14.19 33.1118C14.184 33.0986 14.1676 32.9519 14.1537 32.7858C14.1232 32.4218 14.1123 32.3408 14.0446 31.9812L13.9922 31.7022L14.201 31.5476C14.4816 31.3397 14.7519 31.125 14.8012 31.071C14.855 31.0119 14.9291 30.7865 14.9364 30.6599C14.9444 30.5184 14.8902 30.3938 14.586 29.8548C14.2704 29.2956 14.0624 28.9721 13.9618 28.8842C13.8689 28.803 13.7086 28.7431 13.562 28.7347C13.4369 28.7275 13.2953 28.7741 12.8419 28.9717C12.6586 29.0515 12.5022 29.1151 12.4943 29.113C12.4864 29.1109 12.3944 29.0332 12.2898 28.9403C12.0183 28.6991 11.6744 28.4415 11.4372 28.3016C11.3339 28.2407 11.337 28.2867 11.4056 27.8258C11.4654 27.4245 11.4756 27.2748 11.4518 27.1529C11.4257 27.0198 11.3414 26.8741 11.2436 26.7932C11.1684 26.731 11.1377 26.7188 10.7697 26.6052C10.3382 26.4721 10.2596 26.4511 9.73181 26.3285Z" stroke="white" stroke-width="2" stroke-linecap="round" stroke-linejoin="round"/>
<path d="M4.45996 16.3858L7.8308 20.608L12.053 17.2372" stroke="white" stroke-width="2.5" stroke-linecap="round" stroke-linejoin="round"/>
</svg>
