<svg width="46" height="40" viewBox="0 0 46 40" fill="none" xmlns="http://www.w3.org/2000/svg">
<path d="M20.2701 31.3612H10C5.58172 31.3612 2 27.7795 2 23.3612V10C2 5.58173 5.58172 2 10 2H35.0279C39.4462 2 43.0279 5.58172 43.0279 10V16.4901" stroke="white" stroke-width="3" stroke-linecap="round" stroke-linejoin="round"/>
<path d="M11.5696 12.7453C12.5518 10.7551 15.3897 10.7551 16.3719 12.7453V12.7453C16.7619 13.5356 17.5158 14.0833 18.388 14.2101V14.2101C20.5842 14.5292 21.4612 17.2282 19.872 18.7773V18.7773C19.2409 19.3925 18.9529 20.2788 19.1019 21.1474V21.1474C19.4771 23.3348 17.1811 25.0029 15.2167 23.9701V23.9701C14.4367 23.56 13.5047 23.56 12.7247 23.9701V23.9701C10.7603 25.0029 8.46436 23.3348 8.83953 21.1474V21.1474C8.98851 20.2788 8.70053 19.3925 8.06945 18.7773V18.7773C6.48021 17.2282 7.35717 14.5292 9.55344 14.2101V14.2101C10.4256 14.0833 11.1795 13.5356 11.5696 12.7453V12.7453Z" stroke="white" stroke-width="3" stroke-linecap="round" stroke-linejoin="round"/>
<path d="M25.5195 8.29993H37.2796" stroke="white" stroke-width="3" stroke-linecap="round" stroke-linejoin="round"/>
<path d="M25.5195 12.5H37.2796" stroke="white" stroke-width="3" stroke-linecap="round" stroke-linejoin="round"/>
<path d="M25.5195 16.7001H29.2995" stroke="white" stroke-width="3" stroke-linecap="round" stroke-linejoin="round"/>
<circle cx="35.1794" cy="28.8802" r="8.82004" stroke="white" stroke-width="3" stroke-linecap="round" stroke-linejoin="round"/>
<path d="M30.5596 28.5263L32.4612 30.4026C33.2437 31.1747 34.5028 31.1705 35.2801 30.3931L39.5785 26.0947" stroke="white" stroke-width="3" stroke-linecap="round" stroke-linejoin="round"/>
</svg>
