<svg width="46" height="41" viewBox="0 0 46 41" fill="none" xmlns="http://www.w3.org/2000/svg">
<circle cx="35.0767" cy="30.1567" r="8.92338" stroke="white" stroke-width="2.5" stroke-linecap="round" stroke-linejoin="round"/>
<path d="M30.4033 29.7987L32.3438 31.7133C33.1263 32.4854 34.3854 32.4812 35.1627 31.7038L39.5279 27.3386" stroke="white" stroke-width="2.5" stroke-linecap="round" stroke-linejoin="round"/>
<path d="M21.6146 35.7775C20.7338 35.9199 19.8302 35.9938 18.9095 35.9938C9.57064 35.9938 2 28.384 2 18.9969C2 9.60978 9.57064 2 18.9095 2C27.2106 2 34.1147 8.01256 35.5465 15.9415" stroke="white" stroke-width="2.5" stroke-linecap="round" stroke-linejoin="round"/>
<path d="M20.8535 11.7952C21.585 11.7959 22.2865 12.0844 22.8038 12.5974C23.3211 13.1104 23.612 13.8059 23.6127 14.5314C23.6127 14.768 23.7075 14.9948 23.8761 15.1621C24.0448 15.3293 24.2736 15.4233 24.5121 15.4233C24.7506 15.4233 24.9794 15.3293 25.148 15.1621C25.3167 14.9948 25.4115 14.768 25.4115 14.5314V14.4708C25.4115 14.4538 25.4115 14.4387 25.4115 14.4217C25.3814 13.2424 24.8882 12.1214 24.0367 11.2975C23.1853 10.4737 22.0431 10.0122 20.8535 10.0114H20.0153V9.11953C20.0153 8.88299 19.9205 8.65614 19.7518 8.48888C19.5832 8.32163 19.3544 8.22766 19.1159 8.22766C18.8774 8.22766 18.6486 8.32163 18.4799 8.48888C18.3113 8.65614 18.2165 8.88299 18.2165 9.11953V10.0114H17.3783C16.2967 10.0126 15.2507 10.3951 14.4273 11.0907C13.6039 11.7863 13.0569 12.7497 12.8839 13.8085C12.7109 14.8673 12.9232 15.9527 13.483 16.8705C14.0427 17.7883 14.9134 18.4789 15.9393 18.8187L18.2165 19.5723V26.0651H17.3783C16.6467 26.0644 15.9453 25.7759 15.428 25.2629C14.9107 24.7499 14.6198 24.0543 14.619 23.3289C14.619 23.0923 14.5243 22.8655 14.3556 22.6982C14.187 22.5309 13.9582 22.437 13.7197 22.437C13.4812 22.437 13.2524 22.5309 13.0837 22.6982C12.9151 22.8655 12.8203 23.0923 12.8203 23.3289V23.3895C12.8203 23.4064 12.8203 23.4216 12.8203 23.4386C12.8503 24.6179 13.3436 25.7389 14.1951 26.5627C15.0465 27.3866 16.1887 27.8481 17.3783 27.8489H18.2165V28.7407C18.2165 28.9773 18.3113 29.2041 18.4799 29.3714C18.6486 29.5386 18.8774 29.6326 19.1159 29.6326C19.3544 29.6326 19.5832 29.5386 19.7518 29.3714C19.9205 29.2041 20.0153 28.9773 20.0153 28.7407V27.8489H20.8535C21.9351 27.8477 22.9811 27.4652 23.8045 26.7695C24.6278 26.0739 25.1749 25.1106 25.3479 24.0518C25.5209 22.993 25.3086 21.9076 24.7488 20.9898C24.1891 20.0719 23.3184 19.3814 22.2925 19.0416L20.0153 18.288V11.7952H20.8535ZM21.7259 20.7326C22.3477 20.9379 22.8756 21.3559 23.215 21.9119C23.5543 22.4679 23.6831 23.1255 23.5781 23.767C23.4732 24.4086 23.1414 24.9921 22.6422 25.4132C22.1429 25.8343 21.5088 26.0654 20.8535 26.0651H20.0153V20.1672L21.7259 20.7326ZM18.2165 17.6931L16.5077 17.1277C15.886 16.9225 15.3582 16.5046 15.0188 15.9488C14.6794 15.393 14.5506 14.7355 14.6553 14.0941C14.76 13.4527 15.0915 12.8692 15.5904 12.448C16.0893 12.0267 16.7231 11.7953 17.3783 11.7952H18.2165V17.6931Z" fill="white"/>
</svg>
